HIERARCHY
ROOT Hips
{
   OFFSET 0.00000 0.00000 0.00000
   CHANNELS 6 Xposition Yposition Zposition Zrotation Xrotation Yrotation
   JOINT RightUpLeg
   {
      OFFSET -9.840380 -9.533777 0.111817
      CHANNELS 3 Zrotation Xrotation Yrotation
      JOINT RightLeg
      {
         OFFSET 0.000000 -48.864969 1.509970
         CHANNELS 3 Zrotation Xrotation Yrotation
         JOINT RightFoot
         {
            OFFSET 0.278904 -46.301641 -1.606649
            CHANNELS 3 Zrotation Xrotation Yrotation
            JOINT RightToes
            {
               OFFSET 0.044000 -4.856599 9.349010
               CHANNELS 3 Zrotation Xrotation Yrotation
               End Site
               {
                  OFFSET -0.088000 -0.151193 10.757769
               }
            }
         }
      }
   }
   JOINT Spine
   {
      OFFSET 0.000000 13.079551 0.000000
      CHANNELS 3 Zrotation Xrotation Yrotation
      JOINT Spine1
      {
         OFFSET 0.000000 28.223142 0.140429
         CHANNELS 3 Zrotation Xrotation Yrotation
         JOINT HEad
         {
            OFFSET 0.000000 9.607577 0.012475
            CHANNELS 3 Zrotation Xrotation Yrotation
            End Site
            {
               OFFSET -0.319000 14.051621 2.765345
            }
         }
         JOINT LeftShoulder1
         {
            OFFSET 9.889000 -0.398477 -0.242000
            CHANNELS 3 Zrotation Xrotation Yrotation
            JOINT LeftArm
            {
               OFFSET 11.310971 -0.003718 0.354335
               CHANNELS 3 Zrotation Xrotation Yrotation
               JOINT LeftForeArm
               {
                  OFFSET 36.043591 0.109058 -1.566774
                  CHANNELS 3 Zrotation Xrotation Yrotation
                  JOINT LeftHand
                  {
                     OFFSET 30.320732 0.093898 1.124376
                     CHANNELS 3 Zrotation Xrotation Yrotation
                     End Site
                     {
                        OFFSET 18.418731 -0.660000 1.653201
                     }
                  }
               }
            }
         }
         JOINT RightShoulder
         {
            OFFSET -9.889000 -0.398477 -0.242000
            CHANNELS 3 Zrotation Xrotation Yrotation
            JOINT RightArm
            {
               OFFSET -11.310971 -0.003718 0.354335
               CHANNELS 3 Zrotation Xrotation Yrotation
               JOINT RightForeArm
               {
                  OFFSET -36.186809 0.109058 -1.566774
                  CHANNELS 3 Zrotation Xrotation Yrotation
                  JOINT RightHand
                  {
                     OFFSET -30.241313 0.093898 1.124376
                     CHANNELS 3 Zrotation Xrotation Yrotation
                     End Site
                     {
                        OFFSET -18.294322 -0.660000 1.653201
                     }
                  }
               }
            }
         }
      }
   }
   JOINT LeftUpLeg
   {
      OFFSET 9.840380 -9.533777 0.111817
      CHANNELS 3 Zrotation Xrotation Yrotation
      JOINT LeftLeg
      {
         OFFSET 0.000000 -48.864969 1.509970
         CHANNELS 3 Zrotation Xrotation Yrotation
         JOINT LeftFoot
         {
            OFFSET -0.278904 -46.301641 -1.606649
            CHANNELS 3 Zrotation Xrotation Yrotation
            JOINT LeftToes
            {
               OFFSET -0.044000 -4.856599 9.349010
               CHANNELS 3 Zrotation Xrotation Yrotation
               End Site
               {
                  OFFSET 0.088000 -0.052193 10.757769
               }
            }
         }
      }
   }
}
MOTION
Frames: 10
Frame Time: 0.016667
-111.684902 86.217211 271.691681 -18.567615 2.469443 -50.684313 24.799281 -26.253982 15.706951 -13.246010 68.167153 16.554814 -22.888625 -17.086196 1.881595 1.139040 39.861681 -4.796763 26.720195 -3.916722 164.299367 21.131265 -11.268450 -133.793721 15.012693 31.694089 14.541090 15.808700 63.950460 -35.793166 -122.167195 17.879641 -204.243078 15.157248 77.929207 -71.605251 -115.011015 -49.490041 -86.398799 -91.279966 63.042407 138.747534 97.106364 27.189993 221.092896 20.396866 101.150320 36.301438 -7.541659 2.992140 37.137890 35.031866 -33.695895 73.454095 25.279621 19.111802 50.082529 -61.733155 53.694969 -0.148934 33.418312 -22.508439 -73.625000
-109.668911 86.537980 270.963741 -18.990982 2.316495 -50.136204 26.042048 -25.649679 16.668544 -16.806194 66.587480 17.928997 -21.771908 -16.830298 1.468447 2.053307 41.026727 -2.623464 25.433123 -2.420067 163.315082 22.199052 -11.872911 -134.011180 14.667087 31.053421 13.208419 20.554474 67.260021 -37.949726 -118.915233 26.092351 -210.281498 12.446352 83.157915 -70.773321 -114.823048 -49.280607 -86.057761 -97.439274 60.742512 143.947056 91.856571 29.674139 226.179242 21.050197 106.041043 36.012490 -1.314423 5.917132 30.012001 34.263958 -34.128410 74.455680 24.996920 20.071023 49.211441 -60.257199 52.615365 -0.477067 32.566912 -23.364224 -72.401317
-107.605437 86.968068 270.320488 -18.793506 1.752527 -49.834204 26.587328 -26.002404 17.618492 -20.849728 65.737524 19.607125 -20.628262 -16.339730 0.955108 2.920675 41.867827 -0.551407 24.787935 -1.441483 162.330388 22.050210 -12.209825 -133.522234 14.685986 30.346182 11.878849 24.600265 70.244978 -39.247322 -115.472530 31.829481 -215.274913 10.039972 88.463367 -68.747848 -114.439772 -48.912901 -85.758721 -101.913082 58.655486 147.975024 86.520376 32.054587 232.281838 21.353958 109.308476 36.011476 -5.370679 3.648836 34.972648 33.405653 -34.191766 75.490058 24.565986 21.612923 48.080659 -58.749476 51.839377 -0.790431 32.002899 -24.126168 -71.206812
-105.402277 87.679804 269.615112 -18.744459 0.862476 -50.260159 25.659308 -27.476425 18.411420 -24.940813 65.342828 21.058824 1.070761 -15.931853 -0.311980 3.708125 42.539631 1.278137 22.837250 -1.013134 161.104410 22.817743 -13.025838 -132.214704 15.428275 29.679610 10.500246 27.397629 72.426575 -40.794165 -111.752147 35.814739 -218.999620 -0.010274 92.356015 -59.431347 -111.546797 -44.118927 -84.689380 -105.878956 57.473856 152.105239 81.253795 33.111220 236.175401 22.223214 112.909304 36.321901 -1.601442 4.685584 31.198487 32.741611 -33.387887 76.964928 23.772439 23.292518 47.394508 -57.077463 51.159278 -1.126160 31.454968 -25.078706 -69.863594
-103.106287 88.115052 268.846165 -18.821681 -0.162146 -49.918547 25.316945 -28.025554 18.846263 -28.147051 64.219474 21.383488 8.914394 -14.973759 -0.912773 4.453799 42.266758 3.008351 21.031577 -1.375360 159.947485 24.249934 -13.725058 -130.074628 17.910605 28.511986 8.902034 28.972245 76.008353 -41.809005 -108.267275 35.798152 -221.289496 -14.705541 95.597759 -47.953276 -117.680676 -51.190895 -86.662260 -109.244088 56.426621 155.680775 77.070680 33.919566 239.344363 21.744307 116.286552 35.224532 -4.629488 3.168041 34.100969 32.655394 -32.772112 78.506816 23.027640 26.152118 46.213951 -55.200786 50.326480 -1.442474 31.230685 -25.992302 -68.657813
-100.798319 88.568629 268.033653 -18.154890 -1.022600 -49.811002 24.027608 -28.520037 19.005075 -30.653213 61.773078 20.848461 19.418329 -13.698834 -1.808956 5.207033 41.206313 4.830525 18.955699 -0.419890 157.561358 24.393169 -15.283182 -127.864351 20.786982 27.644806 7.352069 27.555988 74.945159 -42.172781 -102.663822 36.999838 -219.921395 -15.322930 97.965554 -43.628226 -107.334360 -34.427640 -81.779692 -109.924436 57.050897 159.583245 73.694176 33.539579 241.654852 23.364653 117.915033 36.806947 -3.185978 2.397890 33.084982 33.031679 -33.547816 81.388083 23.056542 29.910187 45.534484 -54.244399 48.702824 -1.198843 30.442098 -27.589255 -66.782878
-98.437174 89.059056 267.107540 -18.698235 -2.057425 -49.829290 23.285353 -27.045013 17.978289 -32.373714 58.556626 20.377429 21.274934 -12.130756 -2.209342 6.063075 39.616566 6.915905 16.591892 -0.404422 156.227873 25.314097 -15.685859 -124.368428 21.102334 28.396385 6.425740 26.370428 72.965825 -41.625741 -97.057091 37.731567 -215.449725 -13.964965 101.658623 -47.644391 -122.270386 -53.154731 -88.692363 -109.721764 58.200937 163.219733 71.823804 34.008680 244.776385 23.772079 118.840579 37.903465 -4.923970 1.091390 36.790783 33.218885 -32.912687 83.385921 24.013639 32.361925 44.037126 -53.379240 47.545128 -0.707853 29.945223 -28.865288 -65.161507
-96.165322 89.613436 266.167999 -19.257058 -2.662718 -50.951961 22.473346 -25.474306 17.156916 -34.025567 54.590512 20.931260 26.138111 -9.922235 -2.352710 7.039392 38.043710 9.278206 15.744291 0.701335 154.073468 26.836035 -16.488358 -121.127053 21.679859 28.597906 5.731281 26.384995 71.156774 -42.251950 -97.082806 38.302236 -213.456362 -11.870773 103.331883 -47.882078 -109.335640 -40.941879 -91.351458 -109.230414 59.358060 165.216197 71.374254 33.056473 245.698406 24.446871 119.215816 39.175493 -3.123057 0.795266 37.466467 33.633825 -32.888409 84.474605 26.685768 33.844684 42.133767 -52.888682 45.953421 0.002875 29.304612 -30.351568 -63.640916
-93.937863 90.252389 265.315796 -19.802863 -3.330699 -52.938119 22.196786 -23.321136 15.238767 -36.396879 50.464368 21.762142 25.854452 -8.810232 -2.383481 8.068467 35.907042 11.728715 16.608083 2.777444 151.560381 28.132106 -15.216295 -117.991791 20.989772 27.286860 6.983678 28.314274 70.243885 -44.580918 -96.987791 38.741328 -213.286263 -13.431943 105.544844 -47.711539 -117.169027 -44.751048 -92.670620 -109.648934 59.496009 167.091808 72.100693 33.164735 246.542563 22.718321 116.993095 39.408279 -1.840154 -0.067434 44.439632 34.147606 -32.230252 83.870727 28.736751 35.505499 40.798424 -52.605024 44.639241 0.826110 28.580124 -32.061267 -62.467066
-91.759623 90.903863 264.488064 -19.686157 -3.830859 -56.129552 21.152440 -20.941773 11.814124 -37.856607 43.431933 23.402012 29.563039 -7.521546 -2.493850 9.041138 33.690752 14.156807 18.508482 5.309763 147.536744 29.278695 -12.847448 -116.224275 18.719197 24.439462 9.958695 30.160828 70.360087 -47.641355 -98.699410 38.162340 -212.832178 -14.557513 107.373012 -44.685048 -107.734022 -39.135871 -97.673570 -108.675126 58.370626 169.296921 74.543851 31.332482 245.483037 23.092079 114.005385 38.453774 -0.617906 5.213647 31.906150 33.770081 -30.751202 82.173842 29.112623 35.827836 40.188796 -53.039352 42.939712 1.222724 27.535802 -34.291959 -61.667449
